<?xml version="1.0" encoding="utf-8"?>
<!-- Generator: Adobe Illustrator 15.1.0, SVG Export Plug-In . SVG Version: 6.00 Build 0)  -->
<!DOCTYPE svg PUBLIC "-//W3C//DTD SVG 1.1//EN" "http://www.w3.org/Graphics/SVG/1.1/DTD/svg11.dtd" [
	<!ENTITY ns_extend "http://ns.adobe.com/Extensibility/1.0/">
	<!ENTITY ns_ai "http://ns.adobe.com/AdobeIllustrator/10.0/">
	<!ENTITY ns_graphs "http://ns.adobe.com/Graphs/1.0/">
	<!ENTITY ns_vars "http://ns.adobe.com/Variables/1.0/">
	<!ENTITY ns_imrep "http://ns.adobe.com/ImageReplacement/1.0/">
	<!ENTITY ns_sfw "http://ns.adobe.com/SaveForWeb/1.0/">
	<!ENTITY ns_custom "http://ns.adobe.com/GenericCustomNamespace/1.0/">
	<!ENTITY ns_adobe_xpath "http://ns.adobe.com/XPath/1.0/">
]>
<svg version="1.1" id="Layer_1" xmlns:x="&ns_extend;" xmlns:i="&ns_ai;" xmlns:graph="&ns_graphs;"
	 xmlns="http://www.w3.org/2000/svg" xmlns:xlink="http://www.w3.org/1999/xlink" x="0px" y="0px" width="48px" height="48px"
	 viewBox="0 0 48 48" enable-background="new 0 0 48 48" xml:space="preserve">
<metadata>
	<sfw  xmlns="&ns_sfw;">
		<slices></slices>
		<sliceSourceBounds  x="165.5" y="38.498" height="48.002" width="47.99" bottomLeftOrigin="true"></sliceSourceBounds>
	</sfw>
</metadata>
<path opacity="0.4" fill="#EDEDED" enable-background="new    " d="M36.443,47c1.133,0,2.057-0.938,2.057-2.09V3.091
	C38.5,1.938,37.576,1,36.443,1H3.555C2.422,1,1.5,1.938,1.5,3.091V44.91C1.5,46.063,2.422,47,3.555,47H36.443"/>
<path fill="#BFBEBE" d="M36,46c1.104,0,2.001-0.896,2.001-2V4c0-1.103-0.897-2-2.001-2H4C2.897,2,2,2.898,2,4v40
	c0,1.104,0.897,2,2,2H36 M36,48.002H4c-2.21,0-4-1.791-4-4.002V4c0-2.21,1.791-4,4-4h32c2.209,0,3.999,1.791,3.999,4v40
	C39.999,46.211,38.209,48.002,36,48.002z M33.938,6.938c0,1.104-0.896,2-2,2h-25c-1.104,0-2-0.896-2-2s0.896-2,2-2h25
	C33.042,4.938,33.938,5.833,33.938,6.938z M33.938,14.938c0,1.104-0.896,2-2,2h-25c-1.104,0-2-0.896-2-2s0.896-2,2-2h25
	C33.042,12.938,33.938,13.833,33.938,14.938z M22.938,23.938c0,1.104-0.896,2-2,2h-14c-1.104,0-2-0.896-2-2s0.896-2,2-2h14
	C22.042,21.938,22.938,22.833,22.938,23.938z M19.938,32.938c0,1.104-0.896,2-2,2h-11c-1.104,0-2-0.896-2-2c0-1.104,0.896-2,2-2h11
	C19.042,30.938,19.938,31.833,19.938,32.938z M33.938,40.938c0,1.104-0.896,2-2,2h-25c-1.104,0-2-0.896-2-2c0-1.104,0.896-2,2-2h25
	C33.042,38.938,33.938,39.833,33.938,40.938z M47.198,10.764c1.056,1.057,1.056,2.771,0,3.83L26.732,35.107
	c-0.102,0.1-4.65,0.975-4.72,0.901c-0.042-0.04,0.802-4.635,0.9-4.729l20.466-20.515C44.434,9.707,46.145,9.707,47.198,10.764z"/>
</svg>
