<?xml version="1.0" encoding="utf-8"?>
<!-- Generator: Adobe Illustrator 15.1.0, SVG Export Plug-In . SVG Version: 6.00 Build 0)  -->
<!DOCTYPE svg PUBLIC "-//W3C//DTD SVG 1.1//EN" "http://www.w3.org/Graphics/SVG/1.1/DTD/svg11.dtd" [
	<!ENTITY ns_extend "http://ns.adobe.com/Extensibility/1.0/">
	<!ENTITY ns_ai "http://ns.adobe.com/AdobeIllustrator/10.0/">
	<!ENTITY ns_graphs "http://ns.adobe.com/Graphs/1.0/">
	<!ENTITY ns_vars "http://ns.adobe.com/Variables/1.0/">
	<!ENTITY ns_imrep "http://ns.adobe.com/ImageReplacement/1.0/">
	<!ENTITY ns_sfw "http://ns.adobe.com/SaveForWeb/1.0/">
	<!ENTITY ns_custom "http://ns.adobe.com/GenericCustomNamespace/1.0/">
	<!ENTITY ns_adobe_xpath "http://ns.adobe.com/XPath/1.0/">
]>
<svg version="1.1" id="Layer_1" xmlns:x="&ns_extend;" xmlns:i="&ns_ai;" xmlns:graph="&ns_graphs;"
	 xmlns="http://www.w3.org/2000/svg" xmlns:xlink="http://www.w3.org/1999/xlink" x="0px" y="0px" width="48px" height="48px"
	 viewBox="0 0 48 48" enable-background="new 0 0 48 48" xml:space="preserve">
<metadata>
	<sfw  xmlns="&ns_sfw;">
		<slices></slices>
		<sliceSourceBounds  x="165.512" y="38.512" height="47.976" width="47.976" bottomLeftOrigin="true"></sliceSourceBounds>
	</sfw>
</metadata>
<path opacity="0.4" fill="#EDEDED" enable-background="new    " d="M24,46.5c12.407,0,22.5-10.093,22.5-22.5S36.407,1.5,24,1.5
	S1.5,11.593,1.5,24S11.593,46.5,24,46.5"/>
<path fill="#BFBEBE" d="M24,45.986c12.124,0,21.986-9.862,21.986-21.986c0-12.125-9.862-21.987-21.986-21.987
	C11.875,2.013,2.012,11.875,2.012,24C2.012,36.124,11.875,45.986,24,45.986 M24,47.988C10.752,47.988,0.012,37.249,0.012,24
	C0.012,10.753,10.752,0.012,24,0.012c13.247,0,23.988,10.741,23.988,23.988C47.988,37.249,37.246,47.988,24,47.988z"/>
<path fill="#BFBEBE" d="M22.553,31.064l12.349-11.937c0.773-0.726,0.818-1.863,0.047-2.591c-0.774-0.726-2.029-0.726-2.805,0.002
	L20.813,27.463l-5.118-4.956c-0.732-0.684-1.919-0.684-2.652,0c-0.732,0.685-0.732,1.795,0,2.479l6.085,6.063
	c0,0,0.732,0.855,1.659,0.855C21.828,31.906,22.553,31.064,22.553,31.064z"/>
</svg>
